<svg width="1923" height="788" viewBox="0 0 1923 788" fill="none" xmlns="http://www.w3.org/2000/svg">
<rect width="1920" height="788" fill="#00AF92"/>
<path d="M1032.99 100.426L1031.54 111.389C1031.51 111.653 1031.39 111.899 1031.21 112.094C1031.03 112.29 1030.8 112.425 1030.54 112.483C1030.28 112.54 1030 112.517 1029.76 112.416C1029.51 112.314 1029.3 112.14 1029.16 111.917L1023.23 102.586C1023.12 102.425 1022.99 102.289 1022.82 102.186C1022.66 102.084 1022.48 102.017 1022.29 101.991L1011.33 100.546C1011.07 100.509 1010.82 100.393 1010.63 100.213C1010.43 100.032 1010.29 99.7962 1010.24 99.5364C1010.18 99.2767 1010.2 99.0056 1010.3 98.7596C1010.41 98.5135 1010.58 98.3044 1010.8 98.1601L1020.13 92.2263C1020.29 92.1231 1020.43 91.9864 1020.53 91.8254C1020.64 91.6645 1020.7 91.4832 1020.73 91.294L1022.17 80.3311C1022.21 80.0676 1022.33 79.8216 1022.51 79.6261C1022.69 79.4307 1022.92 79.2951 1023.18 79.2377C1023.44 79.1802 1023.71 79.2037 1023.96 79.3048C1024.21 79.406 1024.42 79.58 1024.56 79.8035L1030.49 89.1343C1030.6 89.295 1030.73 89.4313 1030.89 89.534C1031.05 89.6366 1031.24 89.7031 1031.43 89.7289L1042.39 91.1746C1042.65 91.2111 1042.9 91.3274 1043.09 91.5078C1043.29 91.6883 1043.42 91.9242 1043.48 92.1839C1043.54 92.4437 1043.52 92.7147 1043.41 92.9608C1043.31 93.2068 1043.14 93.416 1042.92 93.5602L1033.59 99.4941C1033.42 99.5972 1033.29 99.734 1033.19 99.8949C1033.08 100.056 1033.02 100.237 1032.99 100.426V100.426Z" fill="#FFC27A"/>
<path d="M259.505 126.68L256.805 134.006C256.725 134.222 256.581 134.407 256.392 134.538C256.204 134.669 255.98 134.74 255.75 134.74C255.52 134.74 255.296 134.669 255.108 134.538C254.919 134.407 254.775 134.222 254.695 134.006L251.995 126.68C251.938 126.525 251.848 126.385 251.732 126.268C251.615 126.151 251.475 126.062 251.32 126.005L243.994 123.305C243.778 123.225 243.593 123.081 243.462 122.892C243.331 122.704 243.26 122.48 243.26 122.25C243.26 122.02 243.331 121.796 243.462 121.608C243.593 121.419 243.778 121.275 243.994 121.195L251.32 118.495C251.475 118.438 251.615 118.348 251.732 118.232C251.848 118.115 251.938 117.975 251.995 117.82L254.695 110.494C254.775 110.278 254.919 110.093 255.108 109.962C255.296 109.83 255.52 109.76 255.75 109.76C255.98 109.76 256.204 109.83 256.392 109.962C256.581 110.093 256.725 110.278 256.805 110.494L259.505 117.82C259.562 117.975 259.652 118.115 259.768 118.232C259.885 118.348 260.025 118.438 260.18 118.495L267.506 121.195C267.722 121.275 267.907 121.419 268.038 121.608C268.17 121.796 268.24 122.02 268.24 122.25C268.24 122.48 268.17 122.704 268.038 122.892C267.907 123.081 267.722 123.225 267.506 123.305L260.18 126.005C260.025 126.062 259.885 126.151 259.768 126.268C259.652 126.385 259.562 126.525 259.505 126.68V126.68Z" fill="white"/>
<path d="M264.75 104.25V111" stroke="white" stroke-width="2.25" stroke-linecap="round" stroke-linejoin="round"/>
<path d="M268.125 107.625H261.375" stroke="white" stroke-width="2.25" stroke-linecap="round" stroke-linejoin="round"/>
<path d="M271.5 112.125V116.625" stroke="white" stroke-width="2.25" stroke-linecap="round" stroke-linejoin="round"/>
<path d="M273.75 114.375H269.25" stroke="white" stroke-width="2.25" stroke-linecap="round" stroke-linejoin="round"/>
<circle cx="39" cy="457" r="5" fill="#ED4459"/>
<circle cx="1226" cy="64" r="6" fill="#6D39E9"/>
<circle cx="1263.5" cy="649.022" r="7.5" fill="#6D39E9"/>
<circle cx="509.5" cy="77.5" r="7.5" fill="#FFC27A"/>
<circle cx="1729.5" cy="376.5" r="159.5" fill="#FFC27A"/>
<path d="M1919.16 590.765C1913 622.984 1895.95 676.732 1877 633.976C1853.31 580.53 1848.23 652.543 1845.78 684.359C1845.96 682.469 1841.77 754.187 1811.46 658.117" stroke="#FFC27A" stroke-width="6" stroke-linecap="round" stroke-linejoin="round"/>
</svg>
