<svg width="33" height="32" viewBox="0 0 33 32" fill="none" xmlns="http://www.w3.org/2000/svg">
<path d="M4.79342 27.1999L28.0601 17.2265C28.3006 17.1241 28.5057 16.9532 28.6499 16.7351C28.794 16.517 28.8709 16.2613 28.8709 15.9999C28.8709 15.7384 28.794 15.4828 28.6499 15.2647C28.5057 15.0466 28.3006 14.8757 28.0601 14.7732L4.79342 4.79987C4.59196 4.712 4.37179 4.67566 4.15277 4.69414C3.93375 4.71262 3.72278 4.78534 3.53889 4.90573C3.355 5.02612 3.20397 5.19039 3.09943 5.38374C2.99489 5.57708 2.94013 5.79341 2.94009 6.0132L2.92676 12.1599C2.92676 12.8265 3.42009 13.3999 4.08676 13.4799L22.9268 15.9999L4.08676 18.5065C3.42009 18.5999 2.92676 19.1732 2.92676 19.8399L2.94009 25.9865C2.94009 26.9332 3.91342 27.5865 4.79342 27.1999Z" fill="white"/>
</svg>
