<svg width="42" height="43" viewBox="0 0 42 43" fill="none" xmlns="http://www.w3.org/2000/svg">
<path d="M13.8751 32.379L15.7917 24.2748L9.54175 18.8998L17.7709 18.129L21.0001 10.6082L24.2292 18.2123L32.4584 18.8998L26.2084 24.2748L28.1251 32.379L21.0001 28.0873L13.8751 32.379ZM21.0001 0.608154C23.736 0.608154 26.445 1.14702 28.9727 2.194C31.5003 3.24097 33.7969 4.77554 35.7315 6.7101C37.666 8.64465 39.2006 10.9413 40.2476 13.4689C41.2945 15.9965 41.8334 18.7056 41.8334 21.4415C41.8334 26.9668 39.6385 32.2659 35.7315 36.1729C31.8245 40.0799 26.5254 42.2748 21.0001 42.2748C18.2642 42.2748 15.5551 41.736 13.0275 40.689C10.4999 39.642 8.20324 38.1074 6.26869 36.1729C2.36168 32.2659 0.166748 26.9668 0.166748 21.4415C0.166748 15.9161 2.36168 10.6171 6.26869 6.7101C10.1757 2.80309 15.4747 0.608154 21.0001 0.608154ZM21.0001 4.77482C16.5798 4.77482 12.3406 6.53077 9.21497 9.65638C6.08936 12.782 4.33342 17.0212 4.33342 21.4415C4.33342 25.8618 6.08936 30.101 9.21497 33.2266C12.3406 36.3522 16.5798 38.1082 21.0001 38.1082C25.4204 38.1082 29.6596 36.3522 32.7852 33.2266C35.9108 30.101 37.6668 25.8618 37.6668 21.4415C37.6668 17.0212 35.9108 12.782 32.7852 9.65638C29.6596 6.53077 25.4204 4.77482 21.0001 4.77482Z" fill="#20B486"/>
</svg>
